<svg
  xmlns="http://www.w3.org/2000/svg"
  width="150"
  height="150"
  viewBox="0 0 155 155"
  shape-rendering="crispEdges"
>
  <title>QR de suport</title>
  <desc>https://jobregv.github.io/mental-health/</desc>
  <path
    fill="#F4F1EA"
    d="M 5,5 l 5,0 0,5 -5,0 z
      M 10,5 l 5,0 0,5 -5,0 z
      M 15,5 l 5,0 0,5 -5,0 z
      M 20,5 l 5,0 0,5 -5,0 z
      M 25,5 l 5,0 0,5 -5,0 z
      M 30,5 l 5,0 0,5 -5,0 z
      M 35,5 l 5,0 0,5 -5,0 z
      M 55,5 l 5,0 0,5 -5,0 z
      M 65,5 l 5,0 0,5 -5,0 z
      M 70,5 l 5,0 0,5 -5,0 z
      M 85,5 l 5,0 0,5 -5,0 z
      M 90,5 l 5,0 0,5 -5,0 z
      M 95,5 l 5,0 0,5 -5,0 z
      M 100,5 l 5,0 0,5 -5,0 z
      M 115,5 l 5,0 0,5 -5,0 z
      M 120,5 l 5,0 0,5 -5,0 z
      M 125,5 l 5,0 0,5 -5,0 z
      M 130,5 l 5,0 0,5 -5,0 z
      M 135,5 l 5,0 0,5 -5,0 z
      M 140,5 l 5,0 0,5 -5,0 z
      M 145,5 l 5,0 0,5 -5,0 z
      M 5,10 l 5,0 0,5 -5,0 z
      M 35,10 l 5,0 0,5 -5,0 z
      M 45,10 l 5,0 0,5 -5,0 z
      M 55,10 l 5,0 0,5 -5,0 z
      M 75,10 l 5,0 0,5 -5,0 z
      M 80,10 l 5,0 0,5 -5,0 z
      M 85,10 l 5,0 0,5 -5,0 z
      M 90,10 l 5,0 0,5 -5,0 z
      M 115,10 l 5,0 0,5 -5,0 z
      M 145,10 l 5,0 0,5 -5,0 z
      M 5,15 l 5,0 0,5 -5,0 z
      M 15,15 l 5,0 0,5 -5,0 z
      M 20,15 l 5,0 0,5 -5,0 z
      M 25,15 l 5,0 0,5 -5,0 z
      M 35,15 l 5,0 0,5 -5,0 z
      M 65,15 l 5,0 0,5 -5,0 z
      M 80,15 l 5,0 0,5 -5,0 z
      M 95,15 l 5,0 0,5 -5,0 z
      M 100,15 l 5,0 0,5 -5,0 z
      M 115,15 l 5,0 0,5 -5,0 z
      M 125,15 l 5,0 0,5 -5,0 z
      M 130,15 l 5,0 0,5 -5,0 z
      M 135,15 l 5,0 0,5 -5,0 z
      M 145,15 l 5,0 0,5 -5,0 z
      M 5,20 l 5,0 0,5 -5,0 z
      M 15,20 l 5,0 0,5 -5,0 z
      M 20,20 l 5,0 0,5 -5,0 z
      M 25,20 l 5,0 0,5 -5,0 z
      M 35,20 l 5,0 0,5 -5,0 z
      M 45,20 l 5,0 0,5 -5,0 z
      M 50,20 l 5,0 0,5 -5,0 z
      M 55,20 l 5,0 0,5 -5,0 z
      M 65,20 l 5,0 0,5 -5,0 z
      M 70,20 l 5,0 0,5 -5,0 z
      M 75,20 l 5,0 0,5 -5,0 z
      M 80,20 l 5,0 0,5 -5,0 z
      M 90,20 l 5,0 0,5 -5,0 z
      M 115,20 l 5,0 0,5 -5,0 z
      M 125,20 l 5,0 0,5 -5,0 z
      M 130,20 l 5,0 0,5 -5,0 z
      M 135,20 l 5,0 0,5 -5,0 z
      M 145,20 l 5,0 0,5 -5,0 z
      M 5,25 l 5,0 0,5 -5,0 z
      M 15,25 l 5,0 0,5 -5,0 z
      M 20,25 l 5,0 0,5 -5,0 z
      M 25,25 l 5,0 0,5 -5,0 z
      M 35,25 l 5,0 0,5 -5,0 z
      M 50,25 l 5,0 0,5 -5,0 z
      M 75,25 l 5,0 0,5 -5,0 z
      M 85,25 l 5,0 0,5 -5,0 z
      M 90,25 l 5,0 0,5 -5,0 z
      M 95,25 l 5,0 0,5 -5,0 z
      M 100,25 l 5,0 0,5 -5,0 z
      M 105,25 l 5,0 0,5 -5,0 z
      M 115,25 l 5,0 0,5 -5,0 z
      M 125,25 l 5,0 0,5 -5,0 z
      M 130,25 l 5,0 0,5 -5,0 z
      M 135,25 l 5,0 0,5 -5,0 z
      M 145,25 l 5,0 0,5 -5,0 z
      M 5,30 l 5,0 0,5 -5,0 z
      M 35,30 l 5,0 0,5 -5,0 z
      M 45,30 l 5,0 0,5 -5,0 z
      M 50,30 l 5,0 0,5 -5,0 z
      M 60,30 l 5,0 0,5 -5,0 z
      M 65,30 l 5,0 0,5 -5,0 z
      M 75,30 l 5,0 0,5 -5,0 z
      M 80,30 l 5,0 0,5 -5,0 z
      M 85,30 l 5,0 0,5 -5,0 z
      M 95,30 l 5,0 0,5 -5,0 z
      M 105,30 l 5,0 0,5 -5,0 z
      M 115,30 l 5,0 0,5 -5,0 z
      M 145,30 l 5,0 0,5 -5,0 z
      M 5,35 l 5,0 0,5 -5,0 z
      M 10,35 l 5,0 0,5 -5,0 z
      M 15,35 l 5,0 0,5 -5,0 z
      M 20,35 l 5,0 0,5 -5,0 z
      M 25,35 l 5,0 0,5 -5,0 z
      M 30,35 l 5,0 0,5 -5,0 z
      M 35,35 l 5,0 0,5 -5,0 z
      M 45,35 l 5,0 0,5 -5,0 z
      M 55,35 l 5,0 0,5 -5,0 z
      M 65,35 l 5,0 0,5 -5,0 z
      M 75,35 l 5,0 0,5 -5,0 z
      M 85,35 l 5,0 0,5 -5,0 z
      M 95,35 l 5,0 0,5 -5,0 z
      M 105,35 l 5,0 0,5 -5,0 z
      M 115,35 l 5,0 0,5 -5,0 z
      M 120,35 l 5,0 0,5 -5,0 z
      M 125,35 l 5,0 0,5 -5,0 z
      M 130,35 l 5,0 0,5 -5,0 z
      M 135,35 l 5,0 0,5 -5,0 z
      M 140,35 l 5,0 0,5 -5,0 z
      M 145,35 l 5,0 0,5 -5,0 z
      M 50,40 l 5,0 0,5 -5,0 z
      M 55,40 l 5,0 0,5 -5,0 z
      M 60,40 l 5,0 0,5 -5,0 z
      M 80,40 l 5,0 0,5 -5,0 z
      M 85,40 l 5,0 0,5 -5,0 z
      M 105,40 l 5,0 0,5 -5,0 z
      M 5,45 l 5,0 0,5 -5,0 z
      M 10,45 l 5,0 0,5 -5,0 z
      M 15,45 l 5,0 0,5 -5,0 z
      M 20,45 l 5,0 0,5 -5,0 z
      M 25,45 l 5,0 0,5 -5,0 z
      M 35,45 l 5,0 0,5 -5,0 z
      M 40,45 l 5,0 0,5 -5,0 z
      M 45,45 l 5,0 0,5 -5,0 z
      M 50,45 l 5,0 0,5 -5,0 z
      M 60,45 l 5,0 0,5 -5,0 z
      M 70,45 l 5,0 0,5 -5,0 z
      M 75,45 l 5,0 0,5 -5,0 z
      M 80,45 l 5,0 0,5 -5,0 z
      M 90,45 l 5,0 0,5 -5,0 z
      M 105,45 l 5,0 0,5 -5,0 z
      M 110,45 l 5,0 0,5 -5,0 z
      M 120,45 l 5,0 0,5 -5,0 z
      M 130,45 l 5,0 0,5 -5,0 z
      M 140,45 l 5,0 0,5 -5,0 z
      M 10,50 l 5,0 0,5 -5,0 z
      M 20,50 l 5,0 0,5 -5,0 z
      M 25,50 l 5,0 0,5 -5,0 z
      M 40,50 l 5,0 0,5 -5,0 z
      M 45,50 l 5,0 0,5 -5,0 z
      M 55,50 l 5,0 0,5 -5,0 z
      M 65,50 l 5,0 0,5 -5,0 z
      M 70,50 l 5,0 0,5 -5,0 z
      M 85,50 l 5,0 0,5 -5,0 z
      M 90,50 l 5,0 0,5 -5,0 z
      M 95,50 l 5,0 0,5 -5,0 z
      M 100,50 l 5,0 0,5 -5,0 z
      M 105,50 l 5,0 0,5 -5,0 z
      M 110,50 l 5,0 0,5 -5,0 z
      M 115,50 l 5,0 0,5 -5,0 z
      M 120,50 l 5,0 0,5 -5,0 z
      M 125,50 l 5,0 0,5 -5,0 z
      M 145,50 l 5,0 0,5 -5,0 z
      M 5,55 l 5,0 0,5 -5,0 z
      M 10,55 l 5,0 0,5 -5,0 z
      M 20,55 l 5,0 0,5 -5,0 z
      M 35,55 l 5,0 0,5 -5,0 z
      M 40,55 l 5,0 0,5 -5,0 z
      M 55,55 l 5,0 0,5 -5,0 z
      M 80,55 l 5,0 0,5 -5,0 z
      M 90,55 l 5,0 0,5 -5,0 z
      M 5,60 l 5,0 0,5 -5,0 z
      M 25,60 l 5,0 0,5 -5,0 z
      M 45,60 l 5,0 0,5 -5,0 z
      M 65,60 l 5,0 0,5 -5,0 z
      M 80,60 l 5,0 0,5 -5,0 z
      M 125,60 l 5,0 0,5 -5,0 z
      M 130,60 l 5,0 0,5 -5,0 z
      M 140,60 l 5,0 0,5 -5,0 z
      M 30,65 l 5,0 0,5 -5,0 z
      M 35,65 l 5,0 0,5 -5,0 z
      M 40,65 l 5,0 0,5 -5,0 z
      M 45,65 l 5,0 0,5 -5,0 z
      M 50,65 l 5,0 0,5 -5,0 z
      M 55,65 l 5,0 0,5 -5,0 z
      M 65,65 l 5,0 0,5 -5,0 z
      M 70,65 l 5,0 0,5 -5,0 z
      M 90,65 l 5,0 0,5 -5,0 z
      M 95,65 l 5,0 0,5 -5,0 z
      M 100,65 l 5,0 0,5 -5,0 z
      M 120,65 l 5,0 0,5 -5,0 z
      M 130,65 l 5,0 0,5 -5,0 z
      M 135,65 l 5,0 0,5 -5,0 z
      M 5,70 l 5,0 0,5 -5,0 z
      M 10,70 l 5,0 0,5 -5,0 z
      M 15,70 l 5,0 0,5 -5,0 z
      M 25,70 l 5,0 0,5 -5,0 z
      M 30,70 l 5,0 0,5 -5,0 z
      M 70,70 l 5,0 0,5 -5,0 z
      M 85,70 l 5,0 0,5 -5,0 z
      M 90,70 l 5,0 0,5 -5,0 z
      M 95,70 l 5,0 0,5 -5,0 z
      M 100,70 l 5,0 0,5 -5,0 z
      M 105,70 l 5,0 0,5 -5,0 z
      M 110,70 l 5,0 0,5 -5,0 z
      M 115,70 l 5,0 0,5 -5,0 z
      M 120,70 l 5,0 0,5 -5,0 z
      M 125,70 l 5,0 0,5 -5,0 z
      M 145,70 l 5,0 0,5 -5,0 z
      M 25,75 l 5,0 0,5 -5,0 z
      M 30,75 l 5,0 0,5 -5,0 z
      M 35,75 l 5,0 0,5 -5,0 z
      M 40,75 l 5,0 0,5 -5,0 z
      M 45,75 l 5,0 0,5 -5,0 z
      M 50,75 l 5,0 0,5 -5,0 z
      M 55,75 l 5,0 0,5 -5,0 z
      M 60,75 l 5,0 0,5 -5,0 z
      M 65,75 l 5,0 0,5 -5,0 z
      M 70,75 l 5,0 0,5 -5,0 z
      M 75,75 l 5,0 0,5 -5,0 z
      M 80,75 l 5,0 0,5 -5,0 z
      M 85,75 l 5,0 0,5 -5,0 z
      M 90,75 l 5,0 0,5 -5,0 z
      M 130,75 l 5,0 0,5 -5,0 z
      M 135,75 l 5,0 0,5 -5,0 z
      M 5,80 l 5,0 0,5 -5,0 z
      M 20,80 l 5,0 0,5 -5,0 z
      M 25,80 l 5,0 0,5 -5,0 z
      M 30,80 l 5,0 0,5 -5,0 z
      M 40,80 l 5,0 0,5 -5,0 z
      M 45,80 l 5,0 0,5 -5,0 z
      M 55,80 l 5,0 0,5 -5,0 z
      M 60,80 l 5,0 0,5 -5,0 z
      M 75,80 l 5,0 0,5 -5,0 z
      M 80,80 l 5,0 0,5 -5,0 z
      M 85,80 l 5,0 0,5 -5,0 z
      M 105,80 l 5,0 0,5 -5,0 z
      M 115,80 l 5,0 0,5 -5,0 z
      M 125,80 l 5,0 0,5 -5,0 z
      M 140,80 l 5,0 0,5 -5,0 z
      M 20,85 l 5,0 0,5 -5,0 z
      M 25,85 l 5,0 0,5 -5,0 z
      M 30,85 l 5,0 0,5 -5,0 z
      M 35,85 l 5,0 0,5 -5,0 z
      M 40,85 l 5,0 0,5 -5,0 z
      M 45,85 l 5,0 0,5 -5,0 z
      M 60,85 l 5,0 0,5 -5,0 z
      M 90,85 l 5,0 0,5 -5,0 z
      M 105,85 l 5,0 0,5 -5,0 z
      M 130,85 l 5,0 0,5 -5,0 z
      M 135,85 l 5,0 0,5 -5,0 z
      M 5,90 l 5,0 0,5 -5,0 z
      M 15,90 l 5,0 0,5 -5,0 z
      M 25,90 l 5,0 0,5 -5,0 z
      M 30,90 l 5,0 0,5 -5,0 z
      M 40,90 l 5,0 0,5 -5,0 z
      M 55,90 l 5,0 0,5 -5,0 z
      M 65,90 l 5,0 0,5 -5,0 z
      M 70,90 l 5,0 0,5 -5,0 z
      M 90,90 l 5,0 0,5 -5,0 z
      M 95,90 l 5,0 0,5 -5,0 z
      M 100,90 l 5,0 0,5 -5,0 z
      M 105,90 l 5,0 0,5 -5,0 z
      M 115,90 l 5,0 0,5 -5,0 z
      M 120,90 l 5,0 0,5 -5,0 z
      M 125,90 l 5,0 0,5 -5,0 z
      M 135,90 l 5,0 0,5 -5,0 z
      M 145,90 l 5,0 0,5 -5,0 z
      M 5,95 l 5,0 0,5 -5,0 z
      M 15,95 l 5,0 0,5 -5,0 z
      M 30,95 l 5,0 0,5 -5,0 z
      M 35,95 l 5,0 0,5 -5,0 z
      M 50,95 l 5,0 0,5 -5,0 z
      M 55,95 l 5,0 0,5 -5,0 z
      M 70,95 l 5,0 0,5 -5,0 z
      M 75,95 l 5,0 0,5 -5,0 z
      M 80,95 l 5,0 0,5 -5,0 z
      M 105,95 l 5,0 0,5 -5,0 z
      M 120,95 l 5,0 0,5 -5,0 z
      M 135,95 l 5,0 0,5 -5,0 z
      M 5,100 l 5,0 0,5 -5,0 z
      M 15,100 l 5,0 0,5 -5,0 z
      M 30,100 l 5,0 0,5 -5,0 z
      M 40,100 l 5,0 0,5 -5,0 z
      M 65,100 l 5,0 0,5 -5,0 z
      M 70,100 l 5,0 0,5 -5,0 z
      M 80,100 l 5,0 0,5 -5,0 z
      M 85,100 l 5,0 0,5 -5,0 z
      M 110,100 l 5,0 0,5 -5,0 z
      M 115,100 l 5,0 0,5 -5,0 z
      M 120,100 l 5,0 0,5 -5,0 z
      M 140,100 l 5,0 0,5 -5,0 z
      M 5,105 l 5,0 0,5 -5,0 z
      M 15,105 l 5,0 0,5 -5,0 z
      M 25,105 l 5,0 0,5 -5,0 z
      M 30,105 l 5,0 0,5 -5,0 z
      M 35,105 l 5,0 0,5 -5,0 z
      M 65,105 l 5,0 0,5 -5,0 z
      M 75,105 l 5,0 0,5 -5,0 z
      M 90,105 l 5,0 0,5 -5,0 z
      M 100,105 l 5,0 0,5 -5,0 z
      M 105,105 l 5,0 0,5 -5,0 z
      M 110,105 l 5,0 0,5 -5,0 z
      M 115,105 l 5,0 0,5 -5,0 z
      M 120,105 l 5,0 0,5 -5,0 z
      M 125,105 l 5,0 0,5 -5,0 z
      M 135,105 l 5,0 0,5 -5,0 z
      M 140,105 l 5,0 0,5 -5,0 z
      M 145,105 l 5,0 0,5 -5,0 z
      M 45,110 l 5,0 0,5 -5,0 z
      M 85,110 l 5,0 0,5 -5,0 z
      M 95,110 l 5,0 0,5 -5,0 z
      M 105,110 l 5,0 0,5 -5,0 z
      M 125,110 l 5,0 0,5 -5,0 z
      M 130,110 l 5,0 0,5 -5,0 z
      M 135,110 l 5,0 0,5 -5,0 z
      M 140,110 l 5,0 0,5 -5,0 z
      M 145,110 l 5,0 0,5 -5,0 z
      M 5,115 l 5,0 0,5 -5,0 z
      M 10,115 l 5,0 0,5 -5,0 z
      M 15,115 l 5,0 0,5 -5,0 z
      M 20,115 l 5,0 0,5 -5,0 z
      M 25,115 l 5,0 0,5 -5,0 z
      M 30,115 l 5,0 0,5 -5,0 z
      M 35,115 l 5,0 0,5 -5,0 z
      M 45,115 l 5,0 0,5 -5,0 z
      M 60,115 l 5,0 0,5 -5,0 z
      M 65,115 l 5,0 0,5 -5,0 z
      M 80,115 l 5,0 0,5 -5,0 z
      M 85,115 l 5,0 0,5 -5,0 z
      M 100,115 l 5,0 0,5 -5,0 z
      M 105,115 l 5,0 0,5 -5,0 z
      M 115,115 l 5,0 0,5 -5,0 z
      M 125,115 l 5,0 0,5 -5,0 z
      M 130,115 l 5,0 0,5 -5,0 z
      M 135,115 l 5,0 0,5 -5,0 z
      M 5,120 l 5,0 0,5 -5,0 z
      M 35,120 l 5,0 0,5 -5,0 z
      M 50,120 l 5,0 0,5 -5,0 z
      M 55,120 l 5,0 0,5 -5,0 z
      M 60,120 l 5,0 0,5 -5,0 z
      M 75,120 l 5,0 0,5 -5,0 z
      M 80,120 l 5,0 0,5 -5,0 z
      M 100,120 l 5,0 0,5 -5,0 z
      M 105,120 l 5,0 0,5 -5,0 z
      M 125,120 l 5,0 0,5 -5,0 z
      M 140,120 l 5,0 0,5 -5,0 z
      M 5,125 l 5,0 0,5 -5,0 z
      M 15,125 l 5,0 0,5 -5,0 z
      M 20,125 l 5,0 0,5 -5,0 z
      M 25,125 l 5,0 0,5 -5,0 z
      M 35,125 l 5,0 0,5 -5,0 z
      M 45,125 l 5,0 0,5 -5,0 z
      M 50,125 l 5,0 0,5 -5,0 z
      M 60,125 l 5,0 0,5 -5,0 z
      M 80,125 l 5,0 0,5 -5,0 z
      M 90,125 l 5,0 0,5 -5,0 z
      M 105,125 l 5,0 0,5 -5,0 z
      M 110,125 l 5,0 0,5 -5,0 z
      M 115,125 l 5,0 0,5 -5,0 z
      M 120,125 l 5,0 0,5 -5,0 z
      M 125,125 l 5,0 0,5 -5,0 z
      M 135,125 l 5,0 0,5 -5,0 z
      M 140,125 l 5,0 0,5 -5,0 z
      M 145,125 l 5,0 0,5 -5,0 z
      M 5,130 l 5,0 0,5 -5,0 z
      M 15,130 l 5,0 0,5 -5,0 z
      M 20,130 l 5,0 0,5 -5,0 z
      M 25,130 l 5,0 0,5 -5,0 z
      M 35,130 l 5,0 0,5 -5,0 z
      M 45,130 l 5,0 0,5 -5,0 z
      M 65,130 l 5,0 0,5 -5,0 z
      M 70,130 l 5,0 0,5 -5,0 z
      M 75,130 l 5,0 0,5 -5,0 z
      M 85,130 l 5,0 0,5 -5,0 z
      M 90,130 l 5,0 0,5 -5,0 z
      M 95,130 l 5,0 0,5 -5,0 z
      M 100,130 l 5,0 0,5 -5,0 z
      M 105,130 l 5,0 0,5 -5,0 z
      M 110,130 l 5,0 0,5 -5,0 z
      M 130,130 l 5,0 0,5 -5,0 z
      M 135,130 l 5,0 0,5 -5,0 z
      M 140,130 l 5,0 0,5 -5,0 z
      M 145,130 l 5,0 0,5 -5,0 z
      M 5,135 l 5,0 0,5 -5,0 z
      M 15,135 l 5,0 0,5 -5,0 z
      M 20,135 l 5,0 0,5 -5,0 z
      M 25,135 l 5,0 0,5 -5,0 z
      M 35,135 l 5,0 0,5 -5,0 z
      M 45,135 l 5,0 0,5 -5,0 z
      M 70,135 l 5,0 0,5 -5,0 z
      M 75,135 l 5,0 0,5 -5,0 z
      M 80,135 l 5,0 0,5 -5,0 z
      M 90,135 l 5,0 0,5 -5,0 z
      M 100,135 l 5,0 0,5 -5,0 z
      M 110,135 l 5,0 0,5 -5,0 z
      M 115,135 l 5,0 0,5 -5,0 z
      M 120,135 l 5,0 0,5 -5,0 z
      M 125,135 l 5,0 0,5 -5,0 z
      M 130,135 l 5,0 0,5 -5,0 z
      M 135,135 l 5,0 0,5 -5,0 z
      M 140,135 l 5,0 0,5 -5,0 z
      M 5,140 l 5,0 0,5 -5,0 z
      M 35,140 l 5,0 0,5 -5,0 z
      M 45,140 l 5,0 0,5 -5,0 z
      M 50,140 l 5,0 0,5 -5,0 z
      M 65,140 l 5,0 0,5 -5,0 z
      M 70,140 l 5,0 0,5 -5,0 z
      M 80,140 l 5,0 0,5 -5,0 z
      M 85,140 l 5,0 0,5 -5,0 z
      M 95,140 l 5,0 0,5 -5,0 z
      M 105,140 l 5,0 0,5 -5,0 z
      M 115,140 l 5,0 0,5 -5,0 z
      M 130,140 l 5,0 0,5 -5,0 z
      M 140,140 l 5,0 0,5 -5,0 z
      M 5,145 l 5,0 0,5 -5,0 z
      M 10,145 l 5,0 0,5 -5,0 z
      M 15,145 l 5,0 0,5 -5,0 z
      M 20,145 l 5,0 0,5 -5,0 z
      M 25,145 l 5,0 0,5 -5,0 z
      M 30,145 l 5,0 0,5 -5,0 z
      M 35,145 l 5,0 0,5 -5,0 z
      M 45,145 l 5,0 0,5 -5,0 z
      M 55,145 l 5,0 0,5 -5,0 z
      M 65,145 l 5,0 0,5 -5,0 z
      M 75,145 l 5,0 0,5 -5,0 z
      M 80,145 l 5,0 0,5 -5,0 z
      M 85,145 l 5,0 0,5 -5,0 z
      M 90,145 l 5,0 0,5 -5,0 z
      M 100,145 l 5,0 0,5 -5,0 z
      M 110,145 l 5,0 0,5 -5,0 z
      M 115,145 l 5,0 0,5 -5,0 z
      M 135,145 l 5,0 0,5 -5,0 z"
  />
</svg>
